<svg width="358" height="539" viewBox="0 0 358 539" fill="none" xmlns="http://www.w3.org/2000/svg">
<path d="M179 477.5C149.333 477.5 122.667 469.833 99 454.5C75.6667 438.833 57.5 417.167 44.5 389.5C31.5 361.5 25 330 25 295C25 259.667 31.5 228.167 44.5 200.5C57.5 172.833 75.6667 151.333 99 136C122.667 120.333 149.333 112.5 179 112.5C208.667 112.5 235.167 120.333 258.5 136C281.833 151.333 300 172.833 313 200.5C326 228.167 332.5 259.667 332.5 295C332.5 330 326 361.5 313 389.5C300 417.167 281.833 438.833 258.5 454.5C235.167 469.833 208.667 477.5 179 477.5ZM179 425C197.667 425 214.167 419.667 228.5 409C242.833 398 254 382.667 262 363C270 343.333 274 320.667 274 295C274 269.333 270 246.667 262 227C254 207.333 242.833 192.167 228.5 181.5C214.167 170.5 197.667 165 179 165C160.333 165 143.833 170.5 129.5 181.5C115.167 192.167 104 207.333 96 227C88 246.667 84 269.333 84 295C84 320.667 88 343.333 96 363C104 382.667 115.167 398 129.5 409C143.833 419.667 160.333 425 179 425Z" fill="#F5F5F5"/>
<path d="M106.5 387.5C110.167 377.5 131.1 353 181.5 343C231.9 333 261.667 265.5 269 235.5" stroke="#F5F5F5" stroke-width="4" stroke-linecap="round"/>
<path d="M162.5 165.5C165.167 220.833 184.5 301.4 226.5 179" stroke="#F5F5F5" stroke-width="4" stroke-linecap="round"/>
<path d="M176.5 165C182.833 199.5 199.1 249.2 213.5 172" stroke="#F5F5F5" stroke-width="4" stroke-linecap="round"/>
<path d="M130.5 179.5C146.333 204 164.9 282.5 106.5 386.5" stroke="#F5F5F5" stroke-width="4" stroke-linecap="round"/>
<path d="M115.5 191C129.667 228.5 146.8 318.6 98 369" stroke="#F5F5F5" stroke-width="4" stroke-linecap="round"/>
<path d="M95 219.5C105 250.5 133 314 84.5 339" stroke="#F5F5F5" stroke-width="4" stroke-linecap="round"/>
<path d="M152.5 168C153.167 252 171 375.7 235 186.5" stroke="#F5F5F5" stroke-width="4" stroke-linecap="round"/>
<path d="M273.5 320C241.833 332.833 180.9 371.7 190.5 424.5" stroke="#F5F5F5" stroke-width="4" stroke-linecap="round"/>
<path d="M265.5 360C241 360.167 193.6 372.5 212 418.5" stroke="#F5F5F5" stroke-width="4" stroke-linecap="round"/>
<path d="M257 380.5C243.167 378.833 213.5 383.5 225.5 411.5" stroke="#F5F5F5" stroke-width="4" stroke-linecap="round"/>
<path d="M146.5 424C131.5 402 147.6 386.2 186 357C234 320.5 261 322.5 275.5 268" stroke="#F5F5F5" stroke-width="4" stroke-linecap="round"/>
</svg>
